<?xml version="1.0" standalone="no"?>
<!DOCTYPE svg PUBLIC "-//W3C//DTD SVG 20010904//EN"
 "http://www.w3.org/TR/2001/REC-SVG-20010904/DTD/svg10.dtd">
<svg version="1.0" xmlns="http://www.w3.org/2000/svg"
 width="201.000000pt" height="201.000000pt" viewBox="0 0 201.000000 201.000000"
 preserveAspectRatio="xMidYMid meet">
<metadata>
Created by potrace 1.14, written by Peter Selinger 2001-2017
</metadata>
<g transform="translate(0.000000,201.000000) scale(0.100000,-0.100000)"
fill="#000000" stroke="none">
<path d="M838 1964 c-295 -57 -529 -229 -647 -476 -12 -26 -44 -82 -70 -126
-50 -83 -95 -209 -110 -306 -9 -63 -7 -251 4 -301 20 -97 29 -124 55 -188 100
-233 301 -406 561 -481 108 -31 191 -40 345 -39 253 2 461 71 628 209 108 89
150 150 317 459 34 64 79 197 79 235 0 15 -34 16 -316 17 l-316 0 -13 -31
c-41 -97 -149 -166 -270 -174 -175 -11 -305 85 -339 249 -15 73 -13 174 3 193
7 8 35 24 64 37 73 32 201 32 271 1 74 -33 113 -67 147 -128 24 -41 37 -54 55
-55 31 -1 227 -1 443 0 l170 1 -25 91 c-13 50 -26 94 -28 98 -2 3 32 5 76 5
l80 -1 -6 36 c-9 59 -42 153 -76 220 -120 239 -347 400 -640 455 -93 17 -350
17 -442 0z"/>
</g>
</svg>
